<svg width="23" height="23" viewBox="0 0 23 23" fill="none" xmlns="http://www.w3.org/2000/svg">
<path fill-rule="evenodd" clip-rule="evenodd" d="M6.77637 0.110498C7.99824 0.054248 8.38783 0.041748 11.5003 0.041748C14.6128 0.041748 15.0024 0.0552897 16.2232 0.110498C17.4441 0.165706 18.2774 0.360498 19.0066 0.64279C19.7701 0.931331 20.4628 1.38237 21.0357 1.96571C21.6191 2.53758 22.0691 3.22925 22.3566 3.99383C22.6399 4.723 22.8337 5.55633 22.8899 6.77508C22.9462 7.99904 22.9587 8.38862 22.9587 11.5001C22.9587 14.6126 22.9451 15.0022 22.8899 16.224C22.8347 17.4428 22.6399 18.2761 22.3566 19.0053C22.0691 19.77 21.6183 20.4628 21.0357 21.0355C20.4628 21.6188 19.7701 22.0688 19.0066 22.3563C18.2774 22.6397 17.4441 22.8334 16.2253 22.8897C15.0024 22.9459 14.6128 22.9584 11.5003 22.9584C8.38783 22.9584 7.99824 22.9449 6.77637 22.8897C5.55762 22.8345 4.72428 22.6397 3.99512 22.3563C3.23045 22.0688 2.53764 21.6181 1.96491 21.0355C1.38197 20.4633 0.930862 19.7708 0.643034 19.0063C0.360742 18.2772 0.166992 17.4438 0.110742 16.2251C0.0544922 15.0011 0.0419922 14.6115 0.0419922 11.5001C0.0419922 8.38758 0.0555338 7.998 0.110742 6.77716C0.16595 5.55633 0.360742 4.723 0.643034 3.99383C0.931287 3.22933 1.38274 2.53687 1.96595 1.96466C2.53787 1.38185 3.22998 0.930752 3.99408 0.64279C4.72324 0.360498 5.55658 0.166748 6.77533 0.110498H6.77637ZM16.1305 2.173C14.9222 2.11779 14.5597 2.10633 11.5003 2.10633C8.44095 2.10633 8.07845 2.11779 6.87012 2.173C5.75241 2.22404 5.14616 2.4105 4.74199 2.56779C4.20762 2.77612 3.82533 3.023 3.42428 3.42404C3.04412 3.79388 2.75155 4.24413 2.56803 4.74175C2.41074 5.14591 2.22428 5.75216 2.17324 6.86987C2.11803 8.07821 2.10658 8.44071 2.10658 11.5001C2.10658 14.5595 2.11803 14.922 2.17324 16.1303C2.22428 17.248 2.41074 17.8542 2.56803 18.2584C2.75137 18.7553 3.04408 19.2063 3.42428 19.5761C3.79408 19.9563 4.24512 20.249 4.74199 20.4324C5.14616 20.5897 5.75241 20.7761 6.87012 20.8272C8.07845 20.8824 8.43991 20.8938 11.5003 20.8938C14.5607 20.8938 14.9222 20.8824 16.1305 20.8272C17.2482 20.7761 17.8545 20.5897 18.2587 20.4324C18.793 20.224 19.1753 19.9772 19.5764 19.5761C19.9566 19.2063 20.2493 18.7553 20.4326 18.2584C20.5899 17.8542 20.7764 17.248 20.8274 16.1303C20.8826 14.922 20.8941 14.5595 20.8941 11.5001C20.8941 8.44071 20.8826 8.07821 20.8274 6.86987C20.7764 5.75216 20.5899 5.14591 20.4326 4.74175C20.2243 4.20737 19.9774 3.82508 19.5764 3.42404C19.2065 3.04391 18.7563 2.75134 18.2587 2.56779C17.8545 2.4105 17.2482 2.22404 16.1305 2.173ZM10.0368 15.0324C10.8541 15.3726 11.7643 15.4185 12.6117 15.1623C13.4592 14.906 14.1914 14.3635 14.6833 13.6274C15.1751 12.8913 15.3962 12.0072 15.3087 11.1262C15.2212 10.2452 14.8305 9.42193 14.2035 8.79696C13.8037 8.39745 13.3203 8.09155 12.7882 7.90128C12.256 7.711 11.6883 7.64108 11.1258 7.69656C10.5634 7.75203 10.0203 7.93152 9.53554 8.22209C9.0508 8.51267 8.63652 8.90711 8.32252 9.37701C8.00851 9.84691 7.80261 10.3806 7.71961 10.9396C7.63662 11.4987 7.67861 12.0691 7.84255 12.61C8.0065 13.1509 8.28833 13.6486 8.66774 14.0675C9.04716 14.4864 9.51473 14.8159 10.0368 15.0324ZM7.33574 7.3355C7.88264 6.7886 8.53191 6.35477 9.24647 6.05879C9.96103 5.76281 10.7269 5.61047 11.5003 5.61047C12.2738 5.61047 13.0396 5.76281 13.7542 6.05879C14.4687 6.35477 15.118 6.7886 15.6649 7.3355C16.2118 7.8824 16.6456 8.53166 16.9416 9.24622C17.2376 9.96078 17.3899 10.7266 17.3899 11.5001C17.3899 12.2735 17.2376 13.0394 16.9416 13.7539C16.6456 14.4685 16.2118 15.1178 15.6649 15.6647C14.5604 16.7692 13.0623 17.3897 11.5003 17.3897C9.9383 17.3897 8.44026 16.7692 7.33574 15.6647C6.23123 14.5601 5.61072 13.0621 5.61072 11.5001C5.61072 9.93806 6.23123 8.44001 7.33574 7.3355ZM18.6962 6.48758C18.8317 6.35974 18.9402 6.206 19.0152 6.03547C19.0903 5.86494 19.1303 5.68109 19.1331 5.4948C19.1358 5.30851 19.1011 5.12357 19.031 4.95092C18.961 4.77828 18.857 4.62145 18.7253 4.48971C18.5935 4.35796 18.4367 4.25399 18.2641 4.18395C18.0914 4.11391 17.9065 4.07922 17.7202 4.08194C17.5339 4.08465 17.35 4.12472 17.1795 4.19976C17.009 4.27481 16.8553 4.38331 16.7274 4.51883C16.4788 4.7824 16.3426 5.1325 16.3479 5.4948C16.3532 5.8571 16.4995 6.20308 16.7557 6.45929C17.0119 6.71551 17.3579 6.86178 17.7202 6.86706C18.0825 6.87234 18.4326 6.73622 18.6962 6.48758Z" fill="#64768B"/>
</svg>
