<svg width="27" height="27" viewBox="0 0 27 27" fill="none" xmlns="http://www.w3.org/2000/svg">
<path d="M26.4163 6.46034C26.4018 5.90307 26.3587 5.34693 26.2872 4.79409C26.1907 4.30987 26.03 3.84072 25.8093 3.39909C25.5784 2.92001 25.2683 2.48333 24.8922 2.10742C24.5125 1.73568 24.0766 1.42618 23.6005 1.19034C23.1583 0.973909 22.6891 0.817526 22.2055 0.725335C21.6579 0.643314 21.1057 0.595859 20.5522 0.583252H6.46009C5.90283 0.597766 5.34668 0.640878 4.79384 0.712419C4.30963 0.808865 3.84047 0.969594 3.39884 1.19034C2.91977 1.4212 2.48308 1.73125 2.10717 2.10742C1.73544 2.48705 1.42594 2.92297 1.19009 3.39909C0.973665 3.8413 0.817282 4.31045 0.725091 4.79409C0.64307 5.34167 0.595615 5.89387 0.583008 6.44742V20.5395C0.597521 21.0968 0.640634 21.6529 0.712174 22.2058C0.808621 22.69 0.96935 23.1591 1.19009 23.6008C1.42096 24.0798 1.73101 24.5165 2.10717 24.8924C2.48681 25.2642 2.92273 25.5737 3.39884 25.8095C3.84106 26.0259 4.31021 26.1823 4.79384 26.2745C5.34142 26.3565 5.89363 26.404 6.44718 26.4166H20.5393C21.0965 26.4021 21.6527 26.359 22.2055 26.2874C22.6897 26.191 23.1589 26.0302 23.6005 25.8095C24.0796 25.5786 24.5163 25.2686 24.8922 24.8924C25.2639 24.5128 25.5734 24.0769 25.8093 23.6008C26.0257 23.1585 26.1821 22.6894 26.2743 22.2058C26.3563 21.6582 26.4037 21.106 26.4163 20.5524V6.46034ZM13.7968 22.5416C12.2455 22.5339 10.7215 22.134 9.36634 21.3791L4.45801 22.6708L5.74967 17.8658C4.9167 16.4662 4.47091 14.8702 4.45801 13.2416C4.46315 11.4112 5.00981 9.62326 6.02914 8.10296C7.04847 6.58266 8.49488 5.39798 10.1862 4.69813C11.8775 3.99829 13.7381 3.81458 15.5336 4.17013C17.3292 4.52569 18.9793 5.40461 20.2763 6.6962C21.5733 7.98779 22.4591 9.63429 22.8221 11.4283C23.1851 13.2224 23.0091 15.0837 22.3163 16.7779C21.6235 18.4721 20.4449 19.9235 18.9288 20.9491C17.4128 21.9747 15.6271 22.5288 13.7968 22.5416ZM13.7968 5.582C12.4273 5.59767 11.0865 5.97594 9.91085 6.67829C8.73516 7.38064 7.76658 8.38199 7.10372 9.58038C6.44087 10.7788 6.1074 12.1314 6.13728 13.5006C6.16717 14.8698 6.55933 16.2066 7.27384 17.3749L7.45468 17.672L6.67967 20.5008L9.62467 19.6999L9.90884 19.8678C11.0837 20.5599 12.4204 20.9297 13.7838 20.9399C15.8393 20.9399 17.8105 20.1234 19.2639 18.67C20.7173 17.2166 21.5338 15.2453 21.5338 13.1899C21.5338 11.1345 20.7173 9.16325 19.2639 7.70984C17.8105 6.25643 15.8393 5.43992 13.7838 5.43992L13.7968 5.582ZM18.3176 16.587C18.1484 16.8692 17.9219 17.1127 17.6527 17.3018C17.3834 17.491 17.0775 17.6215 16.7547 17.6849C16.2723 17.7731 15.7757 17.7421 15.308 17.5945C14.868 17.4569 14.4367 17.293 14.0163 17.1037C12.4195 16.3024 11.0577 15.1008 10.0638 13.6162C9.52377 12.9283 9.19608 12.0979 9.12092 11.2266C9.11323 10.8646 9.1817 10.5051 9.32189 10.1714C9.46207 9.83757 9.67085 9.53699 9.93468 9.28909C10.0124 9.20098 10.1077 9.13016 10.2145 9.08121C10.3213 9.03226 10.4372 9.00627 10.5547 9.00492H10.9163C11.0584 9.00492 11.2522 9.00492 11.433 9.40534C11.6138 9.80575 12.0918 11.007 12.1563 11.1233C12.1881 11.1852 12.2046 11.2538 12.2046 11.3235C12.2046 11.3931 12.1881 11.4617 12.1563 11.5237C12.0992 11.664 12.0208 11.7947 11.9238 11.9112C11.8076 12.0533 11.6784 12.2212 11.5751 12.3245C11.4718 12.4278 11.3426 12.557 11.4718 12.7895C11.8232 13.3826 12.2582 13.922 12.7634 14.3912C13.3136 14.8773 13.9426 15.2661 14.6234 15.5408C14.8559 15.657 14.998 15.6441 15.1272 15.5408C15.2563 15.4374 15.7084 14.8691 15.8634 14.6366C16.0184 14.4041 16.1734 14.4428 16.3801 14.5203C16.5868 14.5978 17.7363 15.1533 17.9688 15.2695C18.2013 15.3858 18.3434 15.4374 18.408 15.5408C18.464 15.8788 18.4329 16.2256 18.3176 16.5483V16.587Z" fill="#64768B"/>
</svg>
