<svg width="29" height="21" viewBox="0 0 29 21" fill="none" xmlns="http://www.w3.org/2000/svg">
<path d="M25.2801 3.9894L14.5001 11.9232L3.72012 3.9894M2.44824 1.36315C2.08357 1.36315 1.73383 1.50802 1.47597 1.76588C1.21811 2.02375 1.07324 2.37348 1.07324 2.73815V18.2825C1.07324 18.6472 1.21811 18.9969 1.47597 19.2548C1.73383 19.5127 2.08357 19.6575 2.44824 19.6575H26.552C26.9167 19.6575 27.2664 19.5127 27.5243 19.2548C27.7821 18.9969 27.927 18.6472 27.927 18.2825V2.71753C27.927 2.35286 27.7821 2.00312 27.5243 1.74526C27.2664 1.48739 26.9167 1.34253 26.552 1.34253H2.44824V1.36315Z" stroke="black" stroke-width="2" stroke-linecap="round" stroke-linejoin="round"/>
</svg>
