<svg width="22" height="24" viewBox="0 0 22 24" fill="none" xmlns="http://www.w3.org/2000/svg">
<path d="M5.0249 1.98647C4.94373 1.87755 4.84127 1.78789 4.72433 1.72345C4.60738 1.65901 4.47864 1.62127 4.34664 1.61272C4.21463 1.60417 4.0824 1.62502 3.95872 1.67388C3.83503 1.72274 3.72273 1.79849 3.62927 1.8961L2.20752 3.3806C1.5434 4.0748 1.29865 5.05729 1.58877 5.9193C2.79291 9.48724 4.75168 12.7266 7.31977 15.3971C9.87992 18.0759 12.9854 20.1191 16.4058 21.3753C17.2321 21.6779 18.174 21.4226 18.8395 20.7298L20.2613 19.2468C20.3548 19.1493 20.4275 19.0321 20.4743 18.9031C20.5211 18.7741 20.5411 18.6362 20.5329 18.4985C20.5247 18.3608 20.4886 18.2265 20.4268 18.1045C20.365 17.9825 20.2791 17.8756 20.1746 17.791L17.0025 15.2178C16.891 15.1276 16.7612 15.0649 16.6231 15.0346C16.4849 15.0043 16.342 15.0071 16.205 15.0429L13.1938 15.8274C12.7918 15.9322 12.3707 15.9266 11.9715 15.8113C11.5722 15.6959 11.2084 15.4747 10.9154 15.1691L7.5384 11.645C7.2452 11.3396 7.03285 10.9601 6.922 10.5436C6.81116 10.1271 6.80561 9.68778 6.9059 9.26838L7.6594 6.12727C7.69365 5.98441 7.69634 5.8353 7.66728 5.6912C7.63822 5.54709 7.57817 5.41175 7.49165 5.29538L5.0249 1.98647ZM2.59115 0.814647C2.83176 0.563573 3.12084 0.368768 3.43916 0.243168C3.75749 0.117568 4.09779 0.0640468 4.43747 0.0861583C4.77715 0.10827 5.10843 0.205508 5.40932 0.371416C5.71021 0.537324 5.97382 0.768106 6.18265 1.04844L8.6494 4.35592C9.10177 4.96263 9.26127 5.75292 9.08252 6.49876L8.3304 9.63986C8.29151 9.80255 8.29361 9.97297 8.3365 10.1346C8.37938 10.2962 8.46159 10.4434 8.57515 10.5621L11.9535 14.0862C12.0674 14.2049 12.2088 14.2908 12.364 14.3355C12.5192 14.3802 12.6829 14.3823 12.839 14.3415L15.8489 13.5569C16.2017 13.4649 16.57 13.4577 16.9259 13.536C17.2818 13.6143 17.616 13.7759 17.9031 14.0087L21.0739 16.5818C22.2138 17.507 22.3183 19.264 21.298 20.3268L19.8763 21.8099C18.8588 22.8712 17.338 23.3374 15.9204 22.8167C12.292 21.485 8.99765 19.3183 6.28165 16.4771C3.55817 13.6444 1.48098 10.2085 0.204148 6.42417C-0.293602 4.94685 0.153273 3.35909 1.17077 2.29771L2.59252 0.814647H2.59115Z" fill="#181818"/>
</svg>
